# xmcd CD database file
#
# Track frame offsets:
#	150
#	14662
#	29464
#	42677
#	57026
#	70817
#	85580
#	99539
#	113468
#	127215
#	141870
#	154830
#
# Disc length: 2248 seconds
#
# Revision: 1
# Processed by: cddbd v1.5.2PL0 Copyright (c) Steve Scherf et al.
# Submitted via: CDex 1.70beta2
#
DISCID=a308c60c
DTITLE=Hillbilly Deluxe - File Under Country
DYEAR=2009
DGENRE=Country
TTITLE0=Feeling Fine
TTITLE1=A 3
TTITLE2=Marie Laveaux
TTITLE3=Lies
TTITLE4=Meanest Woman
TTITLE5=Jackson
TTITLE6=Me On The Radio
TTITLE7=Left Her Behind
TTITLE8=Traveling Song
TTITLE9=Big Brown Eyes
TTITLE10=Six Days On The Road
TTITLE11=Losing Streak
EXTD=YEAR: 2009
EXTT0=
EXTT1=
EXTT2=
EXTT3=
EXTT4=
EXTT5=
EXTT6=
EXTT7=
EXTT8=
EXTT9=
EXTT10=
EXTT11=
PLAYORDER=
